<svg width="600" height="600" viewBox="0 0 600 600" fill="none" xmlns="http://www.w3.org/2000/svg">
<path d="M410.21 501.61C377.777 479.276 339.939 467.203 300.3 467.203C248.048 467.203 198.798 486.519 162.762 522.133C143.543 541.449 128.528 563.783 118.919 589.738L114.714 600H199.399L201.801 596.378C206.006 589.738 211.411 583.099 217.417 577.666C239.039 556.539 268.468 544.467 300.9 544.467C339.939 544.467 375.976 563.783 398.198 596.378L400.6 599.396H485.885L480.48 589.738C466.066 554.125 441.441 523.944 410.21 501.61Z" fill="white"/>
<path d="M77.4775 162.374C58.2582 143.059 36.036 127.968 10.2102 118.31L0 114.085V199.195L3.6036 201.61C10.2102 205.835 16.8168 211.268 22.2222 217.304C43.2432 239.034 55.2552 268.612 55.2552 301.207C55.2552 340.443 36.036 376.66 3.6036 398.994L0 400.805V486.519L10.2102 482.294C45.6456 467.807 76.2763 443.058 97.8979 411.67C120.12 378.471 132.132 340.443 132.132 300.604C132.132 248.089 112.913 198.592 77.4775 162.374Z" fill="white"/>
<path d="M190.39 98.3903C222.822 120.724 260.66 132.797 300.3 132.797C352.552 132.797 401.801 113.481 437.837 77.8672C457.057 58.5513 472.072 36.2173 481.681 10.2616L485.885 0H401.201L398.798 3.62173C394.594 10.2616 389.189 16.2978 383.783 22.334C362.162 43.4608 332.132 54.9296 300.3 54.9296C261.261 54.9296 225.225 35.6137 203.003 3.01811L200.6 0H115.315L119.519 10.2616C133.934 45.8752 158.558 76.6599 190.39 98.3903Z" fill="white"/>
<path d="M596.997 202.213L600 199.799V114.085L589.79 118.31C554.354 132.797 523.724 157.545 502.102 188.934C479.88 221.529 467.868 260.161 467.868 300C467.868 352.515 487.087 402.012 522.523 438.229C541.742 457.545 563.964 472.636 589.79 482.294L600 486.519V401.409L596.396 398.994C589.79 394.769 583.183 389.336 577.778 383.3C556.757 361.57 544.745 331.992 544.745 299.397C545.345 260.765 564.565 223.944 596.997 202.213Z" fill="white"/>
<path d="M299.099 378.471C341.889 378.471 376.576 343.608 376.576 300.604C376.576 257.599 341.889 222.736 299.099 222.736C256.309 222.736 221.622 257.599 221.622 300.604C221.622 343.608 256.309 378.471 299.099 378.471Z" fill="white"/>
</svg>
